<mxfile host="app.diagrams.net" modified="2021-03-14T13:50:41.564Z" agent="5.0 (Windows NT 10.0; Win64; x64) AppleWebKit/537.36 (KHTML, like Gecko) Chrome/89.0.4389.82 Safari/537.36" etag="7-83qrrw8E-WR5MU4BQB" version="14.4.8" type="github">
  <diagram id="Ly4VbQdyuT3D3er_gSDd" name="第 1 页">
    <mxGraphModel dx="1185" dy="667" grid="1" gridSize="10" guides="1" tooltips="1" connect="1" arrows="1" fold="1" page="1" pageScale="1" pageWidth="827" pageHeight="1169" math="0" shadow="0">
      <root>
        <mxCell id="0" />
        <mxCell id="1" parent="0" />
        <mxCell id="vJgox6FODMH35J9-zCMB-65" value="" style="rounded=0;whiteSpace=wrap;html=1;strokeWidth=1;fillColor=none;" vertex="1" parent="1">
          <mxGeometry x="200" y="180" width="450" height="190" as="geometry" />
        </mxCell>
        <mxCell id="vJgox6FODMH35J9-zCMB-14" value="" style="shape=flexArrow;endArrow=classic;html=1;width=6.601941747572815;endSize=4.5475728155339805;endWidth=10.368555000471297;fillColor=#66B2FF;" edge="1" parent="1">
          <mxGeometry width="50" height="50" relative="1" as="geometry">
            <mxPoint x="432" y="140" as="sourcePoint" />
            <mxPoint x="432" y="180.00000000000006" as="targetPoint" />
          </mxGeometry>
        </mxCell>
        <mxCell id="vJgox6FODMH35J9-zCMB-11" value="" style="shape=parallelogram;perimeter=parallelogramPerimeter;whiteSpace=wrap;html=1;fixedSize=1;fillColor=#333333;direction=west;size=40;strokeWidth=2;strokeColor=#CC0000;" vertex="1" parent="1">
          <mxGeometry x="360" y="115" width="150" height="40" as="geometry" />
        </mxCell>
        <mxCell id="vJgox6FODMH35J9-zCMB-12" value="" style="shape=parallelogram;perimeter=parallelogramPerimeter;whiteSpace=wrap;html=1;fixedSize=1;fillColor=#333333;direction=west;size=40;strokeWidth=2;strokeColor=#CC0000;" vertex="1" parent="1">
          <mxGeometry x="360" y="110" width="150" height="40" as="geometry" />
        </mxCell>
        <mxCell id="vJgox6FODMH35J9-zCMB-10" value="" style="shape=parallelogram;perimeter=parallelogramPerimeter;whiteSpace=wrap;html=1;fixedSize=1;fillColor=#333333;direction=west;size=40;strokeWidth=2;strokeColor=#CC0000;" vertex="1" parent="1">
          <mxGeometry x="360" y="105" width="150" height="40" as="geometry" />
        </mxCell>
        <mxCell id="vJgox6FODMH35J9-zCMB-3" value="" style="shape=parallelogram;perimeter=parallelogramPerimeter;whiteSpace=wrap;html=1;fixedSize=1;fillColor=#333333;direction=west;size=40;strokeWidth=2;strokeColor=#CC0000;" vertex="1" parent="1">
          <mxGeometry x="360" y="100" width="150" height="40" as="geometry" />
        </mxCell>
        <mxCell id="vJgox6FODMH35J9-zCMB-13" value="" style="shape=flexArrow;endArrow=classic;html=1;width=6.601941747572815;endSize=4.5475728155339805;endWidth=10.368555000471297;fillColor=#66B2FF;" edge="1" parent="1">
          <mxGeometry width="50" height="50" relative="1" as="geometry">
            <mxPoint x="432" y="80" as="sourcePoint" />
            <mxPoint x="432" y="120" as="targetPoint" />
          </mxGeometry>
        </mxCell>
        <mxCell id="vJgox6FODMH35J9-zCMB-17" value="" style="shape=parallelogram;perimeter=parallelogramPerimeter;whiteSpace=wrap;html=1;fixedSize=1;direction=west;size=40;strokeWidth=1;fillColor=none;" vertex="1" parent="1">
          <mxGeometry x="220" y="220" width="150" height="40" as="geometry" />
        </mxCell>
        <mxCell id="vJgox6FODMH35J9-zCMB-18" value="" style="shape=parallelogram;perimeter=parallelogramPerimeter;whiteSpace=wrap;html=1;fixedSize=1;direction=west;size=40;strokeWidth=1;fillColor=none;strokeColor=#33FF33;" vertex="1" parent="1">
          <mxGeometry x="350" y="220" width="150" height="40" as="geometry" />
        </mxCell>
        <mxCell id="vJgox6FODMH35J9-zCMB-22" value="" style="endArrow=none;html=1;fillColor=#66B2FF;exitX=0.6;exitY=0.005;exitDx=0;exitDy=0;exitPerimeter=0;strokeColor=#33FF33;" edge="1" parent="1">
          <mxGeometry width="50" height="50" relative="1" as="geometry">
            <mxPoint x="406" y="259.8" as="sourcePoint" />
            <mxPoint x="446" y="220" as="targetPoint" />
          </mxGeometry>
        </mxCell>
        <mxCell id="vJgox6FODMH35J9-zCMB-23" value="" style="endArrow=none;html=1;fillColor=#66B2FF;entryX=0;entryY=0.5;entryDx=0;entryDy=0;exitX=1;exitY=0.5;exitDx=0;exitDy=0;strokeColor=#33FF33;" edge="1" parent="1" source="vJgox6FODMH35J9-zCMB-18" target="vJgox6FODMH35J9-zCMB-18">
          <mxGeometry width="50" height="50" relative="1" as="geometry">
            <mxPoint x="410" y="287" as="sourcePoint" />
            <mxPoint x="460" y="237" as="targetPoint" />
          </mxGeometry>
        </mxCell>
        <mxCell id="vJgox6FODMH35J9-zCMB-24" value="" style="shape=parallelogram;perimeter=parallelogramPerimeter;whiteSpace=wrap;html=1;fixedSize=1;direction=west;size=40;strokeWidth=1;fillColor=none;strokeColor=#0000FF;" vertex="1" parent="1">
          <mxGeometry x="480" y="220" width="150" height="40" as="geometry" />
        </mxCell>
        <mxCell id="vJgox6FODMH35J9-zCMB-25" value="" style="endArrow=none;html=1;fillColor=#66B2FF;exitX=0.6;exitY=0.005;exitDx=0;exitDy=0;exitPerimeter=0;strokeColor=#0000FF;" edge="1" parent="1">
          <mxGeometry width="50" height="50" relative="1" as="geometry">
            <mxPoint x="536" y="259.79999999999995" as="sourcePoint" />
            <mxPoint x="576" y="220" as="targetPoint" />
          </mxGeometry>
        </mxCell>
        <mxCell id="vJgox6FODMH35J9-zCMB-26" value="" style="endArrow=none;html=1;fillColor=#66B2FF;entryX=0;entryY=0.5;entryDx=0;entryDy=0;exitX=1;exitY=0.5;exitDx=0;exitDy=0;strokeColor=#0000FF;" edge="1" parent="1" source="vJgox6FODMH35J9-zCMB-24" target="vJgox6FODMH35J9-zCMB-24">
          <mxGeometry width="50" height="50" relative="1" as="geometry">
            <mxPoint x="540" y="287" as="sourcePoint" />
            <mxPoint x="590" y="237" as="targetPoint" />
          </mxGeometry>
        </mxCell>
        <mxCell id="vJgox6FODMH35J9-zCMB-28" value="" style="endArrow=none;html=1;fillColor=#66B2FF;entryX=0;entryY=0.5;entryDx=0;entryDy=0;exitX=1;exitY=0.5;exitDx=0;exitDy=0;strokeColor=#0000FF;" edge="1" parent="1">
          <mxGeometry width="50" height="50" relative="1" as="geometry">
            <mxPoint x="490" y="250" as="sourcePoint" />
            <mxPoint x="600" y="250" as="targetPoint" />
          </mxGeometry>
        </mxCell>
        <mxCell id="vJgox6FODMH35J9-zCMB-29" value="" style="endArrow=none;html=1;fillColor=#66B2FF;entryX=0;entryY=0.5;entryDx=0;entryDy=0;exitX=1;exitY=0.5;exitDx=0;exitDy=0;strokeColor=#0000FF;" edge="1" parent="1">
          <mxGeometry width="50" height="50" relative="1" as="geometry">
            <mxPoint x="510" y="230" as="sourcePoint" />
            <mxPoint x="620" y="230" as="targetPoint" />
          </mxGeometry>
        </mxCell>
        <mxCell id="vJgox6FODMH35J9-zCMB-30" value="" style="endArrow=none;html=1;fillColor=#66B2FF;exitX=0.6;exitY=0.005;exitDx=0;exitDy=0;exitPerimeter=0;strokeColor=#0000FF;" edge="1" parent="1">
          <mxGeometry width="50" height="50" relative="1" as="geometry">
            <mxPoint x="562" y="259.99999999999994" as="sourcePoint" />
            <mxPoint x="602" y="220.2" as="targetPoint" />
          </mxGeometry>
        </mxCell>
        <mxCell id="vJgox6FODMH35J9-zCMB-31" value="" style="endArrow=none;html=1;fillColor=#66B2FF;exitX=0.6;exitY=0.005;exitDx=0;exitDy=0;exitPerimeter=0;strokeColor=#0000FF;" edge="1" parent="1">
          <mxGeometry width="50" height="50" relative="1" as="geometry">
            <mxPoint x="508" y="259.99999999999994" as="sourcePoint" />
            <mxPoint x="548" y="220.2" as="targetPoint" />
          </mxGeometry>
        </mxCell>
        <mxCell id="vJgox6FODMH35J9-zCMB-33" value="" style="shape=curlyBracket;whiteSpace=wrap;html=1;rounded=1;strokeWidth=1;fillColor=none;rotation=90;strokeColor=#999999;" vertex="1" parent="1">
          <mxGeometry x="425" y="87.12" width="20" height="246" as="geometry" />
        </mxCell>
        <mxCell id="vJgox6FODMH35J9-zCMB-34" value="&lt;font face=&quot;Times New Roman&quot; size=&quot;1&quot;&gt;&lt;b style=&quot;font-size: 19px&quot;&gt;SPP&lt;/b&gt;&lt;/font&gt;" style="text;html=1;resizable=0;autosize=1;align=center;verticalAlign=middle;points=[];fillColor=none;strokeColor=none;rounded=0;" vertex="1" parent="1">
          <mxGeometry x="205" y="190" width="50" height="20" as="geometry" />
        </mxCell>
        <mxCell id="vJgox6FODMH35J9-zCMB-36" value="" style="rounded=0;whiteSpace=wrap;html=1;strokeWidth=1;fillColor=#B3B3B3;strokeColor=none;" vertex="1" parent="1">
          <mxGeometry x="265" y="290" width="20" height="7.12" as="geometry" />
        </mxCell>
        <mxCell id="vJgox6FODMH35J9-zCMB-38" value="" style="rounded=0;whiteSpace=wrap;html=1;strokeWidth=1;strokeColor=none;fillColor=#33FF33;" vertex="1" parent="1">
          <mxGeometry x="345" y="290" width="20" height="7.12" as="geometry" />
        </mxCell>
        <mxCell id="vJgox6FODMH35J9-zCMB-39" value="" style="rounded=0;whiteSpace=wrap;html=1;strokeWidth=1;strokeColor=none;fillColor=#33FF33;" vertex="1" parent="1">
          <mxGeometry x="375" y="290" width="20" height="7.12" as="geometry" />
        </mxCell>
        <mxCell id="vJgox6FODMH35J9-zCMB-40" value="" style="rounded=0;whiteSpace=wrap;html=1;strokeWidth=1;strokeColor=none;fillColor=#33FF33;" vertex="1" parent="1">
          <mxGeometry x="405" y="290" width="20" height="7.12" as="geometry" />
        </mxCell>
        <mxCell id="vJgox6FODMH35J9-zCMB-41" value="" style="rounded=0;whiteSpace=wrap;html=1;strokeWidth=1;strokeColor=none;fillColor=#33FF33;" vertex="1" parent="1">
          <mxGeometry x="435" y="290" width="20" height="7.12" as="geometry" />
        </mxCell>
        <mxCell id="vJgox6FODMH35J9-zCMB-44" value="" style="rounded=0;whiteSpace=wrap;html=1;strokeWidth=1;strokeColor=none;fillColor=#3333FF;" vertex="1" parent="1">
          <mxGeometry x="475" y="290" width="20" height="7.12" as="geometry" />
        </mxCell>
        <mxCell id="vJgox6FODMH35J9-zCMB-45" value="" style="rounded=0;whiteSpace=wrap;html=1;strokeWidth=1;strokeColor=none;fillColor=#3333FF;" vertex="1" parent="1">
          <mxGeometry x="505" y="290" width="20" height="7.12" as="geometry" />
        </mxCell>
        <mxCell id="vJgox6FODMH35J9-zCMB-46" value="" style="rounded=0;whiteSpace=wrap;html=1;strokeWidth=1;strokeColor=none;fillColor=#3333FF;" vertex="1" parent="1">
          <mxGeometry x="555" y="290" width="20" height="7.12" as="geometry" />
        </mxCell>
        <mxCell id="vJgox6FODMH35J9-zCMB-47" value="" style="rounded=0;whiteSpace=wrap;html=1;strokeWidth=1;strokeColor=none;fillColor=#3333FF;" vertex="1" parent="1">
          <mxGeometry x="585" y="290" width="20" height="7.12" as="geometry" />
        </mxCell>
        <mxCell id="vJgox6FODMH35J9-zCMB-49" value="&lt;font face=&quot;Times New Roman&quot;&gt;&lt;b&gt;......&lt;/b&gt;&lt;/font&gt;" style="text;html=1;resizable=0;autosize=1;align=center;verticalAlign=middle;points=[];fillColor=none;strokeColor=none;rounded=0;" vertex="1" parent="1">
          <mxGeometry x="493" y="320" width="30" height="20" as="geometry" />
        </mxCell>
        <mxCell id="vJgox6FODMH35J9-zCMB-50" value="" style="shape=curlyBracket;whiteSpace=wrap;html=1;rounded=1;strokeWidth=1;fillColor=none;rotation=-90;strokeColor=#999999;" vertex="1" parent="1">
          <mxGeometry x="426" y="190" width="20" height="246" as="geometry" />
        </mxCell>
        <mxCell id="vJgox6FODMH35J9-zCMB-51" value="" style="rounded=0;whiteSpace=wrap;html=1;strokeWidth=1;fillColor=#B3B3B3;strokeColor=none;" vertex="1" parent="1">
          <mxGeometry x="291" y="329.88" width="20" height="7.12" as="geometry" />
        </mxCell>
        <mxCell id="vJgox6FODMH35J9-zCMB-52" value="" style="rounded=0;whiteSpace=wrap;html=1;strokeWidth=1;strokeColor=none;fillColor=#33FF33;" vertex="1" parent="1">
          <mxGeometry x="322" y="329.88" width="20" height="7.12" as="geometry" />
        </mxCell>
        <mxCell id="vJgox6FODMH35J9-zCMB-53" value="" style="rounded=0;whiteSpace=wrap;html=1;strokeWidth=1;strokeColor=none;fillColor=#33FF33;" vertex="1" parent="1">
          <mxGeometry x="352" y="329.88" width="20" height="7.12" as="geometry" />
        </mxCell>
        <mxCell id="vJgox6FODMH35J9-zCMB-54" value="" style="rounded=0;whiteSpace=wrap;html=1;strokeWidth=1;strokeColor=none;fillColor=#33FF33;" vertex="1" parent="1">
          <mxGeometry x="382" y="329.88" width="20" height="7.12" as="geometry" />
        </mxCell>
        <mxCell id="vJgox6FODMH35J9-zCMB-55" value="" style="rounded=0;whiteSpace=wrap;html=1;strokeWidth=1;strokeColor=none;fillColor=#33FF33;" vertex="1" parent="1">
          <mxGeometry x="412" y="329.88" width="20" height="7.12" as="geometry" />
        </mxCell>
        <mxCell id="vJgox6FODMH35J9-zCMB-56" value="" style="rounded=0;whiteSpace=wrap;html=1;strokeWidth=1;strokeColor=none;fillColor=#3333FF;" vertex="1" parent="1">
          <mxGeometry x="443" y="329.88" width="20" height="7.12" as="geometry" />
        </mxCell>
        <mxCell id="vJgox6FODMH35J9-zCMB-57" value="" style="rounded=0;whiteSpace=wrap;html=1;strokeWidth=1;strokeColor=none;fillColor=#3333FF;" vertex="1" parent="1">
          <mxGeometry x="473" y="329.88" width="20" height="7.12" as="geometry" />
        </mxCell>
        <mxCell id="vJgox6FODMH35J9-zCMB-58" value="" style="rounded=0;whiteSpace=wrap;html=1;strokeWidth=1;strokeColor=none;fillColor=#3333FF;" vertex="1" parent="1">
          <mxGeometry x="525" y="329.88" width="20" height="7.12" as="geometry" />
        </mxCell>
        <mxCell id="vJgox6FODMH35J9-zCMB-59" value="" style="rounded=0;whiteSpace=wrap;html=1;strokeWidth=1;strokeColor=none;fillColor=#3333FF;" vertex="1" parent="1">
          <mxGeometry x="555" y="329.88" width="20" height="7.12" as="geometry" />
        </mxCell>
        <mxCell id="vJgox6FODMH35J9-zCMB-60" value="&lt;font face=&quot;Times New Roman&quot; style=&quot;font-size: 13px&quot;&gt;fixed-size output&lt;/font&gt;" style="text;html=1;resizable=0;autosize=1;align=center;verticalAlign=middle;points=[];fillColor=none;strokeColor=none;rounded=0;" vertex="1" parent="1">
          <mxGeometry x="382.25" y="340" width="100" height="20" as="geometry" />
        </mxCell>
        <mxCell id="vJgox6FODMH35J9-zCMB-61" value="&lt;font face=&quot;Times New Roman&quot;&gt;256-d&lt;/font&gt;" style="text;html=1;resizable=0;autosize=1;align=center;verticalAlign=middle;points=[];fillColor=none;strokeColor=none;rounded=0;" vertex="1" parent="1">
          <mxGeometry x="257" y="260" width="40" height="20" as="geometry" />
        </mxCell>
        <mxCell id="vJgox6FODMH35J9-zCMB-62" value="&lt;font face=&quot;Times New Roman&quot;&gt;4×256-d&lt;/font&gt;" style="text;html=1;resizable=0;autosize=1;align=center;verticalAlign=middle;points=[];fillColor=none;strokeColor=none;rounded=0;" vertex="1" parent="1">
          <mxGeometry x="375" y="260" width="60" height="20" as="geometry" />
        </mxCell>
        <mxCell id="vJgox6FODMH35J9-zCMB-64" value="&lt;font face=&quot;Times New Roman&quot;&gt;16×256-d&lt;/font&gt;" style="text;html=1;resizable=0;autosize=1;align=center;verticalAlign=middle;points=[];fillColor=none;strokeColor=none;rounded=0;" vertex="1" parent="1">
          <mxGeometry x="510" y="260" width="60" height="20" as="geometry" />
        </mxCell>
        <mxCell id="vJgox6FODMH35J9-zCMB-66" value="" style="shape=flexArrow;endArrow=classic;html=1;width=6.601941747572815;endSize=4.5475728155339805;endWidth=10.368555000471297;fillColor=#66B2FF;" edge="1" parent="1">
          <mxGeometry width="50" height="50" relative="1" as="geometry">
            <mxPoint x="432" y="370" as="sourcePoint" />
            <mxPoint x="432" y="410.00000000000006" as="targetPoint" />
          </mxGeometry>
        </mxCell>
        <mxCell id="vJgox6FODMH35J9-zCMB-67" value="&lt;font style=&quot;font-size: 13px&quot;&gt;fully-connected layers&lt;/font&gt;" style="rounded=0;whiteSpace=wrap;html=1;strokeColor=#000000;strokeWidth=1;fillColor=none;" vertex="1" parent="1">
          <mxGeometry x="365.5" y="410" width="129.5" height="30" as="geometry" />
        </mxCell>
        <mxCell id="vJgox6FODMH35J9-zCMB-68" value="&lt;font style=&quot;font-size: 13px&quot;&gt;Input image&lt;/font&gt;" style="rounded=0;whiteSpace=wrap;html=1;strokeColor=#000000;strokeWidth=1;fillColor=none;" vertex="1" parent="1">
          <mxGeometry x="382" y="50" width="105" height="30" as="geometry" />
        </mxCell>
        <mxCell id="vJgox6FODMH35J9-zCMB-69" value="&lt;font style=&quot;font-size: 13px&quot;&gt;convolutional layers&lt;/font&gt;" style="rounded=0;whiteSpace=wrap;html=1;strokeWidth=1;fillColor=none;strokeColor=none;" vertex="1" parent="1">
          <mxGeometry x="455" y="75" width="137.5" height="30" as="geometry" />
        </mxCell>
        <mxCell id="vJgox6FODMH35J9-zCMB-70" value="&lt;font style=&quot;font-size: 13px&quot;&gt;input of any size&lt;/font&gt;" style="rounded=0;whiteSpace=wrap;html=1;strokeWidth=1;fillColor=none;strokeColor=none;" vertex="1" parent="1">
          <mxGeometry x="445" y="150" width="137.5" height="30" as="geometry" />
        </mxCell>
      </root>
    </mxGraphModel>
  </diagram>
</mxfile>
